<svg width="172" height="43" viewBox="0 0 172 43" fill="none" xmlns="http://www.w3.org/2000/svg">
<path d="M55.5543 23.8664C54.0457 23.5831 52.6591 23.2083 51.4034 22.7376C50.1432 22.2669 49.0619 21.6698 48.1506 20.9463C47.2393 20.2228 46.5286 19.3686 46.0184 18.3748C45.5083 17.3855 45.251 16.2436 45.251 14.9579C45.251 13.6722 45.5257 12.4344 46.0751 11.3491C46.6245 10.2639 47.3614 9.3312 48.2814 8.54233C49.2014 7.75346 50.2697 7.14765 51.4906 6.71617C52.7071 6.28469 53.9803 6.06677 55.3014 6.06677C56.2302 6.06677 57.1458 6.16267 58.0484 6.35008C58.951 6.53749 59.8056 6.81642 60.6079 7.18688C61.4102 7.55734 62.1427 8.01496 62.8011 8.56412C63.4639 9.11327 64.0046 9.75832 64.4275 10.4992C64.567 10.7346 64.6499 10.9787 64.676 11.2271C64.6978 11.4799 64.6848 11.724 64.6281 11.9593C64.5714 12.1947 64.4885 12.4213 64.3665 12.6305C64.2444 12.8397 64.1092 13.0184 63.9522 13.1622C63.5293 13.585 62.9712 13.7985 62.2779 13.7985C62.025 13.7985 61.7721 13.7637 61.5105 13.6939C61.2489 13.6242 61.0047 13.5022 60.7692 13.3279C60.3463 12.9661 59.9451 12.6479 59.5658 12.3734C59.1864 12.0988 58.794 11.8765 58.3885 11.7022C57.983 11.5278 57.5383 11.4014 57.0674 11.3143C56.5964 11.2271 56.0383 11.1835 55.393 11.1835C54.6866 11.1835 54.0239 11.2707 53.4134 11.445C52.803 11.6194 52.2711 11.8678 51.8219 12.199C51.3728 12.5303 51.0197 12.9225 50.7624 13.3758C50.5051 13.8334 50.3743 14.3434 50.3743 14.9056C50.3743 15.5637 50.5487 16.1085 50.8932 16.5313C51.2377 16.954 51.7173 17.3114 52.3321 17.6034C52.9469 17.8954 53.6663 18.1395 54.4904 18.3356C55.3145 18.5318 56.2084 18.7322 57.1676 18.9371C58.2664 19.2204 59.3434 19.569 60.3855 19.9874C61.432 20.4059 62.3651 20.9419 63.1805 21.6044C63.9958 22.2625 64.6542 23.0688 65.1513 24.019C65.6484 24.9691 65.8926 26.1066 65.8926 27.4272C65.8926 28.7478 65.6222 29.9725 65.0772 31.1057C64.5365 32.2389 63.7822 33.2239 62.8229 34.065C61.8637 34.9062 60.7343 35.5643 59.4393 36.035C58.1443 36.5057 56.7447 36.7411 55.2535 36.7411C54.0588 36.7411 52.9207 36.5885 51.835 36.2791C50.7493 35.974 49.7552 35.5556 48.8526 35.0282C47.95 34.5009 47.1565 33.882 46.4806 33.1672C45.8048 32.4524 45.2772 31.6941 44.9022 30.8921C44.6973 30.4824 44.5839 30.0989 44.5621 29.7372C44.5403 29.3754 44.5839 29.0442 44.6929 28.7478C44.8019 28.4514 44.9632 28.1856 45.1769 27.9589C45.3905 27.7323 45.6304 27.5449 45.8963 27.4054C46.3062 27.1831 46.6899 27.0742 47.0518 27.0742C47.8236 27.0742 48.6084 27.5841 49.4107 28.604C50.0691 29.5628 50.9063 30.3037 51.9092 30.8311C52.9164 31.3585 54.0936 31.62 55.4453 31.62C56.1037 31.62 56.7534 31.5328 57.39 31.3585C58.0266 31.1841 58.5978 30.9314 59.0992 30.5914C59.6007 30.2514 60.0062 29.8417 60.3158 29.3536C60.621 28.8655 60.7736 28.3076 60.7736 27.68C60.7736 26.9914 60.6166 26.4292 60.3027 25.9933C59.9887 25.5618 59.5832 25.2131 59.0862 24.9429C58.5891 24.6771 58.031 24.4635 57.4118 24.3066C56.7883 24.1497 56.1735 24.0015 55.5587 23.8577L55.5543 23.8664Z" fill="#C714E4"/>
<path d="M74.5873 14.535H82.7933C83.1552 14.535 83.4909 14.6004 83.8092 14.7355C84.1232 14.8706 84.3979 15.0536 84.6333 15.289C84.8688 15.5244 85.0563 15.7989 85.1871 16.1127C85.3179 16.4265 85.3877 16.7665 85.3877 17.1239C85.3877 17.4813 85.3223 17.795 85.1871 18.1001C85.0519 18.4052 84.8688 18.6755 84.6333 18.9021C84.3979 19.1287 84.1232 19.3118 83.8092 19.4425C83.4953 19.5776 83.1552 19.643 82.7933 19.643H74.5873V25.6096C74.5873 26.4421 74.7486 27.2223 75.0713 27.9545C75.3939 28.6867 75.8299 29.323 76.3793 29.8634C76.9287 30.4039 77.5784 30.8353 78.324 31.1491C79.0696 31.4629 79.8676 31.6199 80.7178 31.6199C81.4721 31.6199 82.1741 31.5153 82.8151 31.3017C83.4604 31.0881 84.0578 30.7395 84.6072 30.2513C84.8731 29.9985 85.174 29.7937 85.5054 29.6281C85.8368 29.4624 86.1812 29.3796 86.5431 29.3796C87.123 29.3796 87.6506 29.5932 88.1215 30.016C88.405 30.2688 88.6055 30.5651 88.7233 30.9094C88.841 31.2537 88.889 31.6155 88.8628 31.9816C88.8366 32.3477 88.7494 32.7094 88.5925 33.0537C88.4355 33.3981 88.2131 33.7075 87.9341 33.9734C86.9922 34.8843 85.9065 35.5729 84.6813 36.0349C83.4561 36.4969 82.1349 36.7322 80.7178 36.7322C79.1612 36.7322 77.7005 36.4402 76.3445 35.8605C74.984 35.2809 73.7937 34.4877 72.7734 33.4809C71.7487 32.4741 70.9464 31.293 70.3578 29.9332C69.7692 28.5733 69.4727 27.1176 69.4727 25.5617V10.425C69.4727 10.0633 69.5424 9.72768 69.6863 9.40952C69.8258 9.09572 70.0177 8.82116 70.2531 8.58581C70.4886 8.35045 70.7633 8.16739 71.0772 8.03228C71.3912 7.89717 71.7226 7.83179 72.067 7.83179C72.4115 7.83179 72.7385 7.89717 73.0437 8.03228C73.3489 8.16739 73.6193 8.35045 73.846 8.58581C74.0727 8.82116 74.2559 9.09572 74.3867 9.40952C74.5219 9.72332 74.5873 10.0633 74.5873 10.425V14.5263V14.535Z" fill="#C714E4"/>
<path d="M96.1657 27.7802C96.3706 28.3599 96.6584 28.8916 97.029 29.371C97.3996 29.8505 97.8269 30.2601 98.3153 30.5957C98.8036 30.9313 99.3356 31.1928 99.9199 31.3715C100.5 31.5502 101.115 31.6417 101.76 31.6417C103.378 31.6417 104.651 31.219 105.579 30.3691C105.893 30.1512 106.199 29.9899 106.5 29.8853C106.796 29.7851 107.079 29.7328 107.35 29.7328C107.79 29.7328 108.183 29.8461 108.527 30.0727C108.872 30.2994 109.155 30.5957 109.377 30.9575C109.534 31.2102 109.648 31.4805 109.717 31.7681C109.787 32.0602 109.805 32.3522 109.765 32.6529C109.726 32.9492 109.63 33.2456 109.482 33.5376C109.334 33.8297 109.107 34.0912 108.81 34.3265C108.466 34.6403 108.069 34.9454 107.633 35.233C107.197 35.5207 106.687 35.7778 106.111 36.0001C105.536 36.218 104.891 36.3967 104.18 36.5319C103.465 36.667 102.658 36.7323 101.76 36.7323C100.203 36.7323 98.7426 36.436 97.3735 35.8476C96.0043 35.2592 94.8096 34.4529 93.7893 33.433C92.769 32.4132 91.958 31.219 91.3607 29.8635C90.7633 28.5081 90.4668 27.048 90.4668 25.4921C90.4668 23.9361 90.7633 22.4761 91.3607 21.1075C91.958 19.739 92.769 18.5492 93.7893 17.538C94.8096 16.5225 96.0043 15.7206 97.3735 15.1322C98.7426 14.5438 100.203 14.2474 101.76 14.2474C103.317 14.2474 104.751 14.5394 106.111 15.1191C107.472 15.7031 108.667 16.492 109.696 17.4901C110.725 18.4881 111.544 19.6649 112.15 21.016C112.757 22.3671 113.066 23.8141 113.084 25.3526C113.084 26.0761 112.852 26.6601 112.386 27.109C111.924 27.5579 111.313 27.7802 110.559 27.7802H96.17H96.1657ZM107.816 23.5351C107.642 22.8901 107.372 22.3104 107.001 21.7918C106.63 21.2731 106.186 20.8329 105.667 20.4712C105.148 20.1094 104.568 19.8349 103.923 19.6475C103.277 19.4601 102.593 19.3642 101.869 19.3642C101.145 19.3642 100.465 19.4644 99.8283 19.6605C99.1917 19.8567 98.6161 20.14 98.106 20.5104C97.5958 20.8809 97.1598 21.3211 96.7979 21.831C96.436 22.3409 96.17 22.9119 95.9956 23.5395H107.812L107.816 23.5351Z" fill="#C714E4"/>
<path d="M115.06 25.4964C115.06 23.9404 115.356 22.4804 115.953 21.1249C116.551 19.7695 117.362 18.5753 118.382 17.5554C119.402 16.5355 120.597 15.7292 121.958 15.1409C123.318 14.5525 124.766 14.2561 126.309 14.2561C127.853 14.2561 129.331 14.5525 130.696 15.1409C132.065 15.7292 133.255 16.5355 134.271 17.5554C135.287 18.5753 136.085 19.7695 136.665 21.1249C137.245 22.4847 137.537 23.9404 137.537 25.4964V33.8427C137.537 34.2044 137.471 34.54 137.336 34.8582C137.201 35.1764 137.018 35.4466 136.782 35.6819C136.547 35.9173 136.268 36.1047 135.945 36.2485C135.623 36.388 135.278 36.4621 134.921 36.4621C134.306 36.4621 133.787 36.2834 133.364 35.9216C132.941 35.5599 132.658 35.1023 132.514 34.5531C131.616 35.2286 130.648 35.7647 129.601 36.157C128.555 36.5492 127.46 36.7454 126.309 36.7454C124.77 36.7454 123.318 36.449 121.958 35.8606C120.597 35.2722 119.407 34.4659 118.382 33.4461C117.357 32.4262 116.551 31.232 115.953 29.8635C115.356 28.495 115.06 27.0436 115.06 25.5008V25.4964ZM120.179 25.4964C120.179 26.3288 120.34 27.1177 120.663 27.8674C120.985 28.617 121.426 29.2664 121.984 29.8243C122.542 30.3821 123.191 30.8223 123.928 31.1448C124.665 31.4674 125.463 31.6286 126.309 31.6286C127.155 31.6286 127.957 31.4674 128.703 31.1448C129.448 30.8223 130.098 30.3821 130.648 29.8243C131.197 29.2664 131.629 28.6126 131.947 27.8674C132.261 27.1221 132.418 26.3332 132.418 25.4964C132.418 24.6596 132.261 23.8489 131.947 23.1036C131.633 22.3584 131.201 21.709 130.648 21.1598C130.098 20.6106 129.448 20.1748 128.703 19.8523C127.957 19.5298 127.159 19.3685 126.309 19.3685C125.459 19.3685 124.687 19.5298 123.937 19.8523C123.187 20.1748 122.537 20.6106 121.979 21.1598C121.421 21.709 120.981 22.3584 120.658 23.1036C120.336 23.8489 120.174 24.6465 120.174 25.4964H120.179Z" fill="#C714E4"/>
<path d="M146.946 33.9606C146.946 34.6666 146.706 35.2594 146.226 35.7388C145.747 36.2182 145.154 36.4579 144.447 36.4579C144.103 36.4579 143.771 36.3925 143.457 36.2574C143.143 36.1223 142.864 35.948 142.62 35.7257C142.376 35.5078 142.184 35.2419 142.045 34.9368C141.901 34.6317 141.831 34.3049 141.831 33.9606V22.8554C141.831 21.6786 142.062 20.5672 142.529 19.5212C142.991 18.4752 143.623 17.5643 144.425 16.7885C145.228 16.0127 146.156 15.3939 147.22 14.9362C148.284 14.4786 149.4 14.252 150.582 14.252C151.764 14.252 152.958 14.4873 154.035 14.958C155.112 15.4287 156.059 16.0738 156.878 16.8931C157.698 16.0738 158.653 15.4331 159.743 14.958C160.833 14.4873 161.997 14.252 163.223 14.252C164.448 14.252 165.533 14.4742 166.571 14.91C167.609 15.3502 168.52 15.9561 169.309 16.7275C170.094 17.4989 170.722 18.3924 171.198 19.4123C171.668 20.4365 171.93 21.5261 171.974 22.6898C171.974 22.7203 171.974 22.7551 171.987 22.7944C171.995 22.8336 172 22.8685 172 22.899V33.9562C172 34.3005 171.934 34.6274 171.799 34.9325C171.664 35.2375 171.485 35.5034 171.259 35.7213C171.032 35.9436 170.766 36.118 170.469 36.2531C170.168 36.3882 169.846 36.4536 169.501 36.4536C169.157 36.4536 168.821 36.3882 168.498 36.2531C168.176 36.118 167.897 35.9436 167.661 35.7213C167.426 35.5034 167.238 35.2375 167.094 34.9325C166.951 34.6274 166.881 34.3005 166.881 33.9562V22.8292C166.863 22.328 166.754 21.8617 166.549 21.4389C166.345 21.0118 166.074 20.65 165.734 20.3406C165.398 20.0355 165.01 19.7958 164.579 19.6215C164.147 19.4471 163.68 19.3643 163.175 19.3643C162.669 19.3643 162.194 19.4602 161.736 19.6476C161.278 19.835 160.885 20.0922 160.545 20.4147C160.205 20.7372 159.939 21.112 159.743 21.5435C159.547 21.975 159.447 22.4457 159.447 22.9469V33.9562C159.447 34.6622 159.207 35.255 158.727 35.7344C158.247 36.2138 157.654 36.4536 156.948 36.4536C156.604 36.4536 156.272 36.3882 155.958 36.2531C155.644 36.118 155.365 35.9436 155.121 35.7213C154.877 35.5034 154.685 35.2375 154.546 34.9325C154.406 34.6274 154.332 34.3005 154.332 33.9562V22.851C154.315 22.3498 154.21 21.8791 154.014 21.4476C153.817 21.0161 153.551 20.6457 153.224 20.3406C152.893 20.0355 152.509 19.7958 152.069 19.6215C151.629 19.4471 151.158 19.3643 150.656 19.3643C150.155 19.3643 149.68 19.4559 149.23 19.6345C148.781 19.8132 148.389 20.066 148.053 20.3885C147.717 20.7111 147.447 21.0859 147.251 21.5086C147.055 21.9314 146.959 22.389 146.959 22.8772V33.9562L146.946 33.9606Z" fill="#C714E4"/>
<path d="M26.2754 42.8124C26.1882 42.8124 26.101 42.8124 26.0138 42.808C24.0822 42.7383 22.3642 41.9538 21.0474 40.5417C19.7306 39.1252 19.0678 37.3557 19.1376 35.4249C19.1551 34.976 19.2074 34.5358 19.3033 34.1087C20.0097 30.8922 18.8629 27.545 16.3383 25.4312C14.7163 24.0757 12.6975 23.3696 10.6569 23.3696C9.51448 23.3696 8.36773 23.5919 7.2733 24.0408C6.6367 24.3023 5.95214 24.4375 5.24578 24.4375C4.70946 24.4375 4.17751 24.3546 3.663 24.1934C0.907304 23.3217 -0.627513 20.3711 0.244542 17.6166C0.946546 15.3938 2.90867 13.9556 5.24142 13.9556C5.77773 13.9556 6.30968 14.0384 6.81984 14.1996C6.92884 14.2345 7.03349 14.2694 7.13813 14.3086C8.16716 14.7052 9.24415 14.9013 10.3168 14.9013C11.9824 14.9013 13.6393 14.4306 15.0826 13.511C17.4545 11.9986 18.9632 9.44897 19.1507 6.64217C19.4036 2.85474 22.4645 0 26.2667 0C26.3539 0 26.4411 4.25633e-06 26.5283 0.00436264C30.4569 0.143831 33.544 3.45618 33.4044 7.3918C33.3129 10.0068 31.8216 12.356 29.5151 13.5154C26.5326 15.0146 24.649 18.0655 24.6403 21.404C24.6316 24.7425 26.5065 27.7978 29.4845 29.3101C31.9655 30.5697 33.5047 33.1716 33.4088 35.9392C33.2693 39.7964 30.1386 42.8211 26.2797 42.8211L26.2754 42.8124Z" fill="#C714E4"/>
</svg>
