<svg width="112" height="144" viewBox="0 0 112 144" fill="none" xmlns="http://www.w3.org/2000/svg">
<path d="M88.0871 144C87.8052 144 87.5085 144 87.2267 143.985C74.0388 143.509 63.6992 132.362 64.174 119.147C64.2333 117.644 64.4113 116.141 64.7228 114.712C67.0815 103.893 63.2542 92.6416 54.7838 85.5279C49.3543 80.974 42.5898 78.5928 35.7363 78.5928C31.909 78.5928 28.0521 79.3369 24.4028 80.8549C22.2667 81.7478 19.9822 82.1943 17.6087 82.1943C15.8137 82.1943 14.0336 81.9116 12.3128 81.3758C7.77342 79.9322 4.21315 76.9409 2.01766 72.6995C-0.17784 68.4581 -0.57837 63.8148 0.860571 59.2609C3.21925 51.7751 9.7909 46.9533 17.6087 46.9533C19.4036 46.9533 21.1838 47.2361 22.9045 47.7718C23.2457 47.876 23.6018 48.0099 23.943 48.1439C27.3994 49.4833 31.019 50.1381 34.6089 50.1381C40.1867 50.1381 45.7347 48.5606 50.5708 45.4651C58.522 40.3754 63.5806 31.8032 64.2185 22.3679C65.064 9.62879 75.3146 0.0297852 88.0722 0.0297852C88.3541 0.0297852 88.6508 0.0297852 88.9326 0.0446673C95.4153 0.282782 101.171 2.91693 105.592 7.67923C110.012 12.4415 112.223 18.3944 111.985 24.883C111.674 33.6933 106.675 41.5808 98.9459 45.48C88.9474 50.525 82.6428 60.7789 82.6132 72C82.5835 83.2212 88.8584 93.5048 98.842 98.5945C107.164 102.836 112.312 111.587 111.985 120.888C111.525 133.865 101.023 144.03 88.1019 144.03L88.0871 144Z" fill="#C714E4"/>
</svg>
