<svg width="23" height="23" viewBox="0 0 23 23" fill="none" xmlns="http://www.w3.org/2000/svg">
<path d="M12.3155 7.34153C12.9591 6.52911 13.5781 5.74879 14.1965 4.96786C15.4585 3.37269 16.7194 1.77631 17.9864 0.185992C18.056 0.0987514 18.1772 0.0115109 18.2753 0.0102992C19.3438 -0.00121167 20.4129 0.00424086 21.4814 0.00666421C21.5137 0.00666421 21.5466 0.0199926 21.6245 0.0375619C19.0549 3.28424 16.5095 6.50063 13.9454 9.74065C16.9579 14.1433 19.965 18.5386 23 22.9746C22.8723 22.9842 22.7944 22.9951 22.7166 22.9951C20.5242 22.9951 18.3318 22.9921 16.1394 23C15.9459 23.0006 15.8461 22.9097 15.7392 22.7546C13.9854 20.2107 12.2267 17.6711 10.4685 15.1302C10.4362 15.0835 10.3994 15.0411 10.3441 14.9708C9.94932 15.4652 9.56282 15.9462 9.18015 16.4297C7.49653 18.5562 5.8151 20.6845 4.12819 22.8073C4.05857 22.8946 3.93741 22.983 3.83982 22.9842C2.762 22.9964 1.68417 22.9909 0.606345 22.9897C0.581675 22.9897 0.557004 22.9752 0.487927 22.9527C3.22964 19.4898 5.956 16.0462 8.70045 12.5802C5.81401 8.40659 2.92975 4.23662 0 0.00121167C0.182561 0.00121167 0.296594 0.00121167 0.410626 0.00121167C2.61178 0.00242335 4.81348 0.00605837 7.01464 0C7.20761 0 7.32877 0.0630071 7.44664 0.235671C8.99979 2.51725 10.5606 4.79278 12.1192 7.06951C12.1735 7.14888 12.2316 7.22521 12.3155 7.34153ZM18.8433 20.6772C18.7781 20.57 18.7501 20.5185 18.7172 20.4706C16.4042 17.0925 14.0901 13.7149 11.7777 10.3362C9.98825 7.72139 8.19991 5.1066 6.41706 2.48636C6.27891 2.2834 6.14514 2.1798 5.90172 2.19555C5.4741 2.22342 5.04374 2.20282 4.61447 2.20222C4.4659 2.20222 4.31788 2.20222 4.11668 2.20222C4.22029 2.35549 4.27896 2.44455 4.33926 2.53179C6.86168 6.17772 9.38355 9.82425 11.9065 13.4696C13.5254 15.8087 15.146 18.1472 16.7688 20.4833C16.8247 20.5633 16.9146 20.6669 16.9908 20.6687C17.5906 20.6839 18.1909 20.6772 18.8433 20.6772Z" fill="#DEDEDE"/>
</svg>
