<svg width="23" height="23" viewBox="0 0 23 23" fill="none" xmlns="http://www.w3.org/2000/svg">
<path d="M21.865 22.9986H16.0302C15.9901 22.8777 15.9158 22.7561 15.9158 22.6352C15.9092 19.9202 15.9143 17.2051 15.9056 14.4901C15.9048 14.2136 16.0054 14.1354 16.2664 14.139C17.0318 14.1492 17.798 14.1347 18.5634 14.1463C18.8317 14.1506 18.9527 14.0659 18.9848 13.7858C19.0919 12.8405 19.2115 11.8959 19.3544 10.955C19.4061 10.6126 19.2902 10.5395 18.9724 10.5453C18.0728 10.5619 17.1733 10.5417 16.2737 10.5569C15.9857 10.5612 15.8939 10.4693 15.9048 10.1834C15.926 9.61735 15.9041 9.04916 15.9128 8.48241C15.9325 7.19836 16.3736 6.76769 17.6558 6.76624C18.1545 6.76624 18.6531 6.75755 19.151 6.76841C19.4163 6.7742 19.5198 6.66852 19.5169 6.40505C19.5082 5.56036 19.5089 4.71567 19.5169 3.87097C19.5191 3.62632 19.4258 3.52282 19.1772 3.51703C18.2077 3.49459 17.2359 3.40194 16.2693 3.4432C14.0722 3.53802 12.4713 5.09639 12.3066 7.28015C12.2359 8.21604 12.2432 9.1599 12.2556 10.0994C12.2607 10.4772 12.1345 10.5721 11.7759 10.5598C11.0593 10.5352 10.3413 10.5641 9.62466 10.5467C9.33963 10.5395 9.23466 10.6271 9.2383 10.9144C9.24997 11.8677 9.25142 12.821 9.23757 13.7742C9.2332 14.0638 9.34473 14.1513 9.62175 14.1477C10.3755 14.1361 11.1293 14.1513 11.8823 14.1412C12.1426 14.1376 12.2497 14.2187 12.249 14.493C12.2395 17.3289 12.2402 20.1641 12.2373 23H1.07882C0.240495 22.7134 -0.0270414 22.1249 0.00211786 21.2636C0.0546045 19.6965 0.0181554 18.1273 0.0181554 16.5588C0.0181554 11.5152 0.0181554 6.47237 0.0210714 1.42881C0.0218003 0.497262 0.490535 0.0325718 1.42873 0.00579053C1.63576 0 1.84207 0 2.0491 0C4.5772 0.00144763 7.10531 0.00506672 9.63268 0.00506672C13.6187 0.00506672 17.6055 -0.000723817 21.5916 0.00217145C22.5058 0.00217145 23 0.516805 23 1.42592C23 6.56574 23 11.7056 23 16.8454C23 18.4139 23 19.9824 22.9964 21.5509C22.9942 22.3753 22.7434 22.7003 21.9517 22.9363C21.9197 22.9457 21.8941 22.9776 21.8657 22.9986H21.865Z" fill="#DEDEDE"/>
</svg>
